<svg xmlns="http://www.w3.org/2000/svg" width="52.99" height="52.97" viewBox="0 0 52.99 52.97"><defs><style>.a{fill:#a80532;}</style></defs><path class="a" d="M23.272,14.119a.561.561,0,0,0-.911-.083L11.494,28.487a.553.553,0,0,0,.378.911l19.051,1.656a.563.563,0,0,0,.532-.84Z" transform="translate(3.962 5.655)"/><path class="a" d="M27.431,18.683a.561.561,0,0,0-.911-.083l-2.933,2.968a.553.553,0,0,0-.059.639l3,5.854a.551.551,0,0,0,.438.272l5.31.461a.563.563,0,0,0,.532-.84Z" transform="translate(12.209 8.767)"/><path class="a" d="M27.742,18.046a2.8,2.8,0,1,0-2.8-3.323A2.819,2.819,0,0,0,27.742,18.046Z" transform="translate(13.187 4.709)"/><path class="a" d="M52.3,13.757l-7.781-.674L43.793,5.16a3.194,3.194,0,0,0-3.489-2.9L5.171,5.432A3.208,3.208,0,0,0,2.262,8.909L5.431,43.972a3.194,3.194,0,0,0,3.489,2.9l1.857-.166L10.6,48.678a3.2,3.2,0,0,0,2.921,3.465l35.157,3.063A3.208,3.208,0,0,0,52.154,52.3l3.075-35.075A3.222,3.222,0,0,0,52.3,13.757ZM8.825,34.026A.814.814,0,0,1,7.95,33.3L5.822,9.654a.8.8,0,0,1,.721-.863L39.56,5.822a.814.814,0,0,1,.875.721L41,12.788,17.15,10.694A3.208,3.208,0,0,0,13.674,13.6L11.912,33.742ZM51.657,17.991,49.588,41.642a.805.805,0,0,1-.863.733l-2.2-.189L15.7,39.5a.805.805,0,0,1-.733-.863l.449-5.191,1.62-18.46a.805.805,0,0,1,.863-.733L41.31,16.3l3.512.307,6.1.532A.772.772,0,0,1,51.657,17.991Z" transform="translate(-2.25 -2.249)"/></svg>